# xmcd CD database file
#
# Track frame offsets:
#	150
#	16886
#	36907
#	50075
#	75759
#	103480
#	119910
#	144899
#	167208
#	193042
#	220896
#	242441
#
# Disc length: 3346 seconds
#
# Revision: 1
# Processed by: cddbd v1.5.1PL2 Copyright (c) Steve Scherf et al.
# Submitted via: jetAudio 5
#
DISCID=a60d100c
DTITLE=The Rifters - The Rifters
DYEAR=2004
DGENRE=Country
TTITLE0=The Edge of Texas
TTITLE1=Strangers
TTITLE2=Who Knows What Tomorrow May Bring
TTITLE3=Twilight
TTITLE4=The Ballad of BF Vance
TTITLE5=Hungry for You
TTITLE6=Boxcars
TTITLE7=Cranes
TTITLE8=I Can't Stand to See us Cry
TTITLE9=Flip, Flop and Fly
TTITLE10=Tangled up in Love
TTITLE11=Flip, Flop and Fly (Reprise)
EXTD=
EXTT0=
EXTT1=
EXTT2=
EXTT3=
EXTT4=
EXTT5=
EXTT6=
EXTT7=
EXTT8=
EXTT9=
EXTT10=
EXTT11=
PLAYORDER=
